
<global>
amp_veltrack=0
ampeg_release=0.25
</global>

<group>
group_label=Group_0-45
lpc_hicc1=42
lpc_locc1=0

<region>
hikey=a#2
hivel=127
lokey=a2
loop_end=272749
loop_mode=loop_continuous
loop_start=88662
loop_xfade=22306
lovel=1
lpc=ZSTnQZ/Aj8J2HptC3ItEwiMwkUGmRuPAdtEGQUSHE8HieQ9AbN/rQDEKCcG9MIs+y92hQH+loMDKMUNAM06jP3VvqL9aTEO/ZlY+QD1pQsC3fh5AobUxwPi67j8ldCS/
lpc_rms=-32.40
offset=4033
pitch_keycenter=a#2
sample=BassClarinet_trill_wholetone_PP_A#2.opus
</region>

<region>
hikey=a#3
hivel=127
lokey=a3
loop_end=264427
loop_mode=loop_continuous
loop_start=85956
loop_xfade=21625
lovel=1
lpc=frQMQiGti8LM0E9CpgvKwUWnSkGAVbPAl9CFQLyB+sA655JAtK3BP94EH8BMfJE/c/+rP1YehsAXj2NAmZ9hvWewyDwfRwzAbS5CQK47O8ChZNc/cZaiPl+Vlr+0lqk/
lpc_rms=-26.00
offset=10255
pitch_keycenter=a#3
sample=BassClarinet_trill_wholetone_PP_A#3.opus
</region>

<region>
hikey=G5
hivel=127
lokey=a4
loop_end=263360
loop_mode=loop_continuous
loop_start=85610
loop_xfade=21538
lovel=1
lpc=S20yQuVd+8IzgghDo32Vws9l8UFe8JnBRg2UQZtOOsFH6khAn+YIwONq3T9eC9PA7rxgQbFRZ8DNYVXB4b9nQdqWlMCz1M2/6K/PP4OOkT/DdTnA2XvJQCgTF8Fjp6tA
lpc_rms=-24.20
offset=15543
pitch_keycenter=A#4
sample=BassClarinet_trill_wholetone_PP_A#4.opus
</region>

<region>
hivel=127
key=c2
loop_end=271190
loop_mode=loop_continuous
loop_start=88155
loop_xfade=22178
lovel=1
lpc=n6EpQpqdnsJaU2FCAfzkwR6+c0HR6E/BmM4lQWIjIMGSPwZBga9GwAFNwr9PnEZAvkNkv61GrcBJuxpB2mCDwDoYBsC0LABA01cZQDYme8DNWaZAgfeIwIrRXEBzXwvA
lpc_rms=-27.96
offset=1707
sample=BassClarinet_trill_wholetone_PP_C2.opus
</region>

<region>
hikey=c3
hivel=127
lokey=b2
loop_end=272761
loop_mode=loop_continuous
loop_start=88665
loop_xfade=22307
lovel=1
lpc=Z0q3Qc8HFcIbl3BBcJHUwEmEI0GZ8cfAKNMYQN/tOcDUGb9AaAbRwCIInEChy03AgANUP7sMJD0Awu4/r7unv8TQ1b7BSNQ/0YOvv0QapD+OP8A+lAvuv9EPgL91Trs/
lpc_rms=-31.47
offset=5284
pitch_keycenter=c3
sample=BassClarinet_trill_wholetone_PP_C3.opus
</region>

<region>
hikey=c4
hivel=127
lokey=b3
loop_end=267328
loop_mode=loop_continuous
loop_start=86899
loop_xfade=21863
lovel=1
lpc=x/FKQoG9wcJN3lRCQDuGP16TZ8Ee4PZARXcFQEe+E8FJFZhAltiiv67NBEGwJxzBQ0emQHmS8j0lVg/ADC4+QKAaUsCinXhAI7luwJBqnT9A3/i+U0YfP2nX477fAIE/
lpc_rms=-21.76
pitch_keycenter=c4
sample=BassClarinet_trill_wholetone_PP_C4.opus
</region>

<region>
hikey=d2
hivel=127
lokey=c#2
loop_end=273268
loop_mode=loop_continuous
loop_start=88830
loop_xfade=22348
lovel=1
lpc=rlP7Qfw1a8KZQDNCwLzSwTMPP0FIk6DAGAALQBpoTr/1WXLA3zKlQOvxgL5QS2XArcBEQBcoUr/tNQC/RshIP7a97z+R6wjARdvWvp0EWUBxQCa/9BgXwFeiFkBRALW/
lpc_rms=-27.44
offset=794
pitch_keycenter=d2
sample=BassClarinet_trill_wholetone_PP_D2.opus
</region>

<region>
hikey=d3
hivel=127
lokey=c#3
loop_end=269444
loop_mode=loop_continuous
loop_start=87587
loop_xfade=22036
lovel=1
lpc=Rar7QUk3jcIgG2tCemzCweGnVUC6TtG/5nW5QIFwrsDFa7A/LKqCQJbpRsDhHw3AJtVdQEUdBsDjcEBAPr8Ovyrtyr+pCUk/IAdYQMirscB5/BZA0Ar4vYICJcA/AglA
lpc_rms=-33.24
offset=3983
pitch_keycenter=d3
sample=BassClarinet_trill_wholetone_PP_D3.opus
</region>

<region>
hikey=d4
hivel=127
lokey=c#4
loop_end=267836
loop_mode=loop_continuous
loop_start=87064
loop_xfade=21904
lovel=1
lpc=KToSQoElf8J7i8pBofJ9QFF2fr/vq4vAxxSqQE7KH79jwNHADoTIQM8CWkBbrLXAOiAyPhFSZEA5gD+/tQsPwHvQKD8VzDM+HzZMwPFcskCosf6/0c40wD7HpUDMSRTA
lpc_rms=-24.25
offset=3911
pitch_keycenter=d4
sample=BassClarinet_trill_wholetone_PP_D4.opus
</region>

<region>
hikey=e2
hivel=127
lokey=d#2
loop_end=270470
loop_mode=loop_continuous
loop_start=87921
loop_xfade=22120
lovel=1
lpc=Vr0kQmTtxcKj9sBCV+VNwlayVkHxYwLBPzCTQSFfgcHXnYHA1umIQV0w98CGRMnA1Hf7QFpeQr+Xgga/Ywwwv/l86b2MTAlAH/pJP0ld08APDx9B1mXVwEc/Uj8W/x0+
lpc_rms=-28.07
offset=726
pitch_keycenter=e2
sample=BassClarinet_trill_wholetone_PP_E2.opus
</region>

<region>
hikey=e3
hivel=127
lokey=d#3
loop_end=271445
loop_mode=loop_continuous
loop_start=88238
loop_xfade=22199
lovel=1
lpc=Ks+tQoF0N8NmywNDZVeGwkmTUEIpQRzC5w2+QUM9g8BT2X3A+An/QL/2iUCfU33BqCdkP3rIAEFN/oRAqCyIwNSmSD7qDCjAQLAQQD17wz9mcsPAz7k9QK8lAMH7hgBB
lpc_rms=-23.52
offset=973
pitch_keycenter=e3
sample=BassClarinet_trill_wholetone_PP_E3.opus
</region>

<region>
hikey=e4
hivel=127
lokey=d#4
loop_end=263287
loop_mode=loop_continuous
loop_start=85586
loop_xfade=21532
lovel=1
lpc=FWqRQbCszsEtJ4FBkdhswRKGAkHLnETAVTaPQEkmYMC4NWs/2g1cv3RGJj9kbna/pWdpQDoqisDISk1AiSwOwJ2ZVj/EXqM/3p/Wv3K/XT8f9hW+VBz2vjMuLD+y3iw/
lpc_rms=-22.52
offset=5024
pitch_keycenter=e4
sample=BassClarinet_trill_wholetone_PP_E4.opus
</region>

<region>
hikey=f#2
hivel=127
lokey=f2
loop_end=275828
loop_mode=loop_continuous
loop_start=89662
loop_xfade=22558
lovel=1
lpc=Hx1iQWFagsHNYw9BV6gewbd4J0ARhTbAQB4OQIA2Y78mI0S/giZMP37+az8QSaE9oDUMQEWGHMBOEwZA8RQzv/cHUT6Qa2k+40UDP85OGz2JJbS/YPw/P2fkaT7fexS/
lpc_rms=-26.18
pitch_keycenter=f#2
sample=BassClarinet_trill_wholetone_PP_F#2.opus
</region>

<region>
hikey=f#3
hivel=127
lokey=f3
loop_end=268486
loop_mode=loop_continuous
loop_start=87276
loop_xfade=21957
lovel=1
lpc=J2UCQsncOcJQvu5B/gQHwvalmUHU8uDA0NUAQWeTssD23SlAAqG4P+A38b/aZlRAUXm+wHb/DUAb1cY9M7Xwv6SGpEB9QeO/qCYUP2717j9yz3nAuQ1HQA4SJMBJDJs/
lpc_rms=-22.89
offset=2312
pitch_keycenter=f#3
sample=BassClarinet_trill_wholetone_PP_F#3.opus
</region>

<region>
hikey=f#4
hivel=127
lokey=f4
loop_end=266367
loop_mode=loop_continuous
loop_start=86587
loop_xfade=21784
lovel=1
lpc=aswoQl0utsL8M5hCmAgawjgkrEH5Yq7BlNa2QQj9ccHIFhRAZ7zWQFHhocBHTkjADMRPQAEnL0DYtmzAnL+IQBEfO8Buh0o/p25cP8Ldp7/iaqM/I5s/wErlgj+fadU/
lpc_rms=-26.00
offset=15098
pitch_keycenter=f#4
sample=BassClarinet_trill_wholetone_PP_F#4.opus
</region>

<region>
hikey=g#2
hivel=127
lokey=g2
loop_end=275879
loop_mode=loop_continuous
loop_start=89679
loop_xfade=22562
lovel=1
lpc=IgHSQYVFMMJiSr9BB/EdwVyUq0DqTqTAd596QHPdQcCAgi8/jfBPQJIYur/M67K/pb1vP7j2cz/Xa8+/YnrPPxScI0Cr6HrAfV7ivn8fo0CmwV7AIi7PvxOjSEDw2sC/
lpc_rms=-29.20
offset=11767
pitch_keycenter=g#2
sample=BassClarinet_trill_wholetone_PP_G#2.opus
</region>

<region>
hikey=g#3
hivel=127
lokey=g3
loop_end=266720
loop_mode=loop_continuous
loop_start=86702
loop_xfade=21813
lovel=1
lpc=tPctQhYLhMIsqOZBNfXbwZIowkGi2MTAYdkAv7UYkj/ow7FASnkTwLb7wkAejKvAVsezwNrmnkANgoDAVDJxQBHvW0BhfprAl8OeQC+T4r9TDDDA2zYOPToU0MB+WupA
lpc_rms=-26.43
offset=846
pitch_keycenter=g#3
sample=BassClarinet_trill_wholetone_PP_G#3.opus
</region>

<region>
hikey=g#4
hivel=127
lokey=g4
loop_end=274014
loop_mode=loop_continuous
loop_start=89073
loop_xfade=22409
lovel=1
lpc=jxSOQSEc8MHpb2JB5/upwHa44UCzKlHAP3+cvwakU0BOqQvABDICP1OxmLw0cRY9SP/Xv3Z26z9MEaw9snUpP3lZor/mbGs/s35nv99kUj/2iTK+Pg0xP3lkIMDx/wZA
lpc_rms=-27.39
offset=5313
pitch_keycenter=g#4
sample=BassClarinet_trill_wholetone_PP_G#4.opus
</region>
</group>

<group>
group_label=Group_46-90
lpc_hicc1=84
lpc_locc1=43

<region>
hikey=a#2
hivel=127
lokey=a2
loop_end=271512
loop_mode=loop_continuous
loop_start=88259
loop_xfade=22205
lovel=1
lpc=FrG4QVjMh8L2qalCMMJ9woG4DUJNQIDBV3WzQJRsLMAI6OE/GJw9PwKBnr/yk7G/4AQAQHF1Sr9vjco/hfWVv8YAwL9S+/Q/nQ+mvkamn7+OLXxA6bDrwGjoykC1mO6/
lpc_rms=-22.39
offset=3403
pitch_keycenter=a#2
sample=Bass_trill_wholetone_MF_A#2.opus
</region>

<region>
hikey=a#3
hivel=127
lokey=a3
loop_end=268691
loop_mode=loop_continuous
loop_start=87342
loop_xfade=21974
lovel=1
lpc=iCjaQULFnMI19r9Cx6OGwjc87UFqywfBMbDXQHUXLsG6T8VAD7xcQFrD0sBCCik/K7CFQM46jsBEBYVADQkdwNfgmT2TV5o+bMx9P7g2acASP91AMJfDwNjRiT/HYZI/
lpc_rms=-19.32
offset=2178
pitch_keycenter=a#3
sample=Bass_trill_wholetone_MF_A#3.opus
</region>

<region>
hikey=G5
hivel=127
lokey=a4
loop_end=269354
loop_mode=loop_continuous
loop_start=87558
loop_xfade=22028
lovel=1
lpc=bmu+Qe1Kh8KKwKFCgiRkwkhJCULjI9XBIMDPQSR9usHESYRBvqjkwDDRHUBnWCHBGZmLQQYnPsFaGoo/dSUNQYP7JsE9S15AUwSTvVSmmj64cfI/+G5MwJD+/D/vJDm+
lpc_rms=-19.53
offset=5539
pitch_keycenter=A#4
sample=Bass_trill_wholetone_MF_A#4.opus
</region>

<region>
hivel=127
key=c2
loop_end=268902
loop_mode=loop_continuous
loop_start=87411
loop_xfade=21991
lovel=1
lpc=hKqgQduJPcK9Ph5CKVV6wV2yCUEaggnBQCngQG651sDFepJA1uNXvw6ru789Ocg/+fS5vOunRcAiE9FAEvOwwM6sfz/2mjg/VAXkvcW6DD9WGJq/JUWqPG7sgz4nZ2w+
lpc_rms=-21.40
offset=1677
sample=Bass_trill_wholetone_MF_C2.opus
</region>

<region>
hikey=c3
hivel=127
lokey=b2
loop_end=273232
loop_mode=loop_continuous
loop_start=88819
loop_xfade=22345
lovel=1
lpc=hY+xQVN8acKfAmxCcooCwnOnikHRWETB/6j9QLHanMCamRpA+BTevhhXNECsP7XAGOQbQMCpdD8ssok+iiWkPno3IsAL3Zo/ma/7Pjv1vb7kDZ0/FT1mwDjbWUA5L3u/
lpc_rms=-21.83
offset=3448
pitch_keycenter=c3
sample=Bass_trill_wholetone_MF_C3.opus
</region>

<region>
hikey=c4
hivel=127
lokey=b3
loop_end=271702
loop_mode=loop_continuous
loop_start=88321
loop_xfade=22220
lovel=1
lpc=ed4eQugY08Jkw91Cxj5hwmY4KkECKDM/9Xn2QGjngcFJSh9BAzw2QAffx78YmgLBlwnyQNe+CMB5AIE/dLuhvLy+p7/7jMy/+C+YQDoPwMB0BtNAeCShwGrwmz4VygdA
lpc_rms=-17.80
offset=1942
pitch_keycenter=c4
sample=Bass_trill_wholetone_MF_C4.opus
</region>

<region>
hikey=d2
hivel=127
lokey=c#2
loop_end=273809
loop_mode=loop_continuous
loop_start=89006
loop_xfade=22393
lovel=1
lpc=fbqzQYUGcsJjTn9CrUsHwgV9HEH6Faa/ygpMPbwDBb9oCZa/LQb4P+3pNkDd5eLA9tKxQFsuMMBOdb4/7fIQvycXKj76squ/1E+cP1xwYT96Ybu/fRvvvtrqpj9caMi+
lpc_rms=-21.28
offset=6685
pitch_keycenter=d2
sample=Bass_trill_wholetone_MF_D2.opus
</region>

<region>
hikey=d3
hivel=127
lokey=c#3
loop_end=273228
loop_mode=loop_continuous
loop_start=88817
loop_xfade=22345
lovel=1
lpc=lXnxQZ4ircLALspCw4eLwph9FULe8oXBYt0nQSb7EMEIabE/w0e7QDGku8Akbtg/1ntqvuWkkb/187NAzNFZwI+eQMAsDUFADy6gvvazdMD4VRhBLacwwVlm50BgDgrA
lpc_rms=-20.70
offset=2073
pitch_keycenter=d3
sample=Bass_trill_wholetone_MF_D3.opus
</region>

<region>
hikey=d4
hivel=127
lokey=c#4
loop_end=276161
loop_mode=loop_continuous
loop_start=89771
loop_xfade=22585
lovel=1
lpc=TOruQX5Wi8L2ZmVC9xeQwQhAFL8gKYE/lMD2PzuF27+sviC/rdskP+dDUkAGU5/AY9YvPlxSq0DFK9fAwGDDQL6xbsAKtj3AYHyxQAKjVL+1DijAvpACQObylb8yS5Y/
lpc_rms=-18.26
offset=8379
pitch_keycenter=d4
sample=Bass_trill_wholetone_MF_D4.opus
</region>

<region>
hikey=e2
hivel=127
lokey=d#2
loop_end=275756
loop_mode=loop_continuous
loop_start=89639
loop_xfade=22552
lovel=1
lpc=uMqQQVa/MMKBFxtC5ORLwYnEQ8D8Qv1A3NIWwUXXHkEaRxHBKlO9QPFPzr/0YYe/eYtnPyCyCcAMPbxAYYi9wK1NE0BmnI6/9MAaQJP+RcAHTv8/FMuBvh4Nnb8Hb4s/
lpc_rms=-20.02
offset=6557
pitch_keycenter=e2
sample=Bass_trill_wholetone_MF_E2.opus
</region>

<region>
hikey=e3
hivel=127
lokey=d#3
loop_end=276706
loop_mode=loop_continuous
loop_start=89948
loop_xfade=22630
lovel=1
lpc=I9s4Qk/UAcPMiBBDoyy1wvoBRkLVIx/CgWcdQlrL/MHV02FBEBCvPr6u0D+uUkvByWZRQcuBTMDUQaC/zg9HQA0Ek8DM0kM9zG2/QN3+9sB5xBRBVsk2wVWmrUACQZY+
lpc_rms=-18.06
offset=1877
pitch_keycenter=e3
sample=Bass_trill_wholetone_MF_E3.opus
</region>

<region>
hikey=e4
hivel=127
lokey=d#4
loop_end=272819
loop_mode=loop_continuous
loop_start=88684
loop_xfade=22312
lovel=1
lpc=+P7cQT3LXcJ9BzBC/UXrwcCCs0HoPFTBpGEDQbUju8AKXoxA7vwPvw86YcBHwA9A+V0HQNGWssBSusVAkak9wDfw5D9PN3TA8boeQB/nvL9OJtI/opkpP6rfeMBM7WdA
lpc_rms=-13.80
offset=3888
pitch_keycenter=e4
sample=Bass_trill_wholetone_MF_E4.opus
</region>

<region>
hikey=f#2
hivel=127
lokey=f2
loop_end=277327
loop_mode=loop_continuous
loop_start=90150
loop_xfade=22680
lovel=1
lpc=mIFVQdBC4MFCBrZBT6FkwTLCG0GtaIrAyMxWQCHiVcAQTHc/gtkCPywCUb95ppi94MxKPyU3o78J5oE/D3jAPoXLJ705KC+/Wp3vvlMmfz4XM6g/I0vzv63gOT90CLs+
lpc_rms=-19.17
offset=8300
pitch_keycenter=f#2
sample=Bass_trill_wholetone_MF_F#2.opus
</region>

<region>
hikey=f#3
hivel=127
lokey=f3
loop_end=274130
loop_mode=loop_continuous
loop_start=89111
loop_xfade=22419
lovel=1
lpc=V64EQlZXkcLy6HFCnsQvwnEdE0JeO2vBN4hJQAYeCsE0VxtBUaUewOA//j9kbSTAsVK3wMxK3UA2Yay/3LKkuneSM0B05nvAawyxP4Zx5T/0gyrA2RPiP8cDgcB1Sj9A
lpc_rms=-15.35
offset=1321
pitch_keycenter=f#3
sample=Bass_trill_wholetone_MF_F#3.opus
</region>

<region>
hikey=f#4
hivel=127
lokey=f4
loop_end=271704
loop_mode=loop_continuous
loop_start=88322
loop_xfade=22220
lovel=1
lpc=nTgVQgSMusKSe7JCN5spwkohbkFo4UzBBNNeQaW348Cw01DAM/EAQTCrZ8DfQr+/fFIDwDfMzUBvZGDA6vA/QF/67MB/H6lARDM5QAZD8cB+6JZA9K+DQLdlCMFpH4xA
lpc_rms=-16.43
offset=5874
pitch_keycenter=f#4
sample=Bass_trill_wholetone_MF_F#4.opus
</region>

<region>
hikey=g#2
hivel=127
lokey=g2
loop_end=276582
loop_mode=loop_continuous
loop_start=89907
loop_xfade=22619
lovel=1
lpc=gMKwQdCvZsJ11GJCsWDPwfpAzkB5wFbActNlQNH5DsBYKQA/bBNuP4FbhL+i8bG+ujRlvzrugECPvJvA9PqMQIDw/b/cABLA7aAAQPHYzz8417C/bRH9v5wH8D8G8Iu8
lpc_rms=-21.35
offset=9584
pitch_keycenter=g#2
sample=Bass_trill_wholetone_MF_G#2.opus
</region>

<region>
hikey=g#3
hivel=127
lokey=g3
loop_end=273282
loop_mode=loop_continuous
loop_start=88835
loop_xfade=22349
lovel=1
lpc=qSIBQkXPnsJFOY5CdsMlwihMGEIvZPnBXL19QbOxSMGwbB5BAEvIPg39FMAVif0+4nHhwKWVAkFnLdu/gMMgP58Whz+PS2bAsqyfPkvDSECBeTzA/VeVP453Hb8oTOE+
lpc_rms=-20.28
offset=1541
pitch_keycenter=g#3
sample=Bass_trill_wholetone_MF_G#3.opus
</region>

<region>
hikey=g#4
hivel=127
lokey=g4
loop_end=274014
loop_mode=loop_continuous
loop_start=89073
loop_xfade=22409
lovel=1
lpc=mmOIQZ5fGcLaOAVCdF+RwT1QRUGVvCDBtyTjQFljbsDRXfU/HsOsv6j2EUC5sGvA39QhPzOvBkDIXw2/JkduPx3lob+cUcO9hauEv0x+sD+7CIA/k/HCvnDv5L+Pi78/
lpc_rms=-23.21
offset=6279
pitch_keycenter=g#4
sample=Bass_trill_wholetone_MF_G#4.opus
</region>
</group>

<group>
group_label=Group_91-127
lpc_hicc1=127
lpc_locc1=85

<region>
hikey=a#2
hivel=127
lokey=a2
loop_end=274782
loop_mode=loop_continuous
loop_start=89322
loop_xfade=22472
lovel=1
lpc=NWEqQRHI2cE5o+JBaKtxwYtUeEBHTLa+C0chQKEjeMD9PgQ+AGRXQCgHOcCij0G+IpLaP6wzID7rRay/b5XiP14UBMDC44g+CG1vP/NnVb/H+L0/qQKyv2tQuz3sopE+
lpc_rms=-16.82
offset=6127
pitch_keycenter=a#2
sample=Bass_trill_wholetone_FF_A#2.opus
</region>

<region>
hikey=a#3
hivel=127
lokey=a3
loop_end=267373
loop_mode=loop_continuous
loop_start=86914
loop_xfade=21866
lovel=1
lpc=8cpHQZt5+8HcpQFC1eiUwcJo4kCwv8y/mv8MQNZ/r8Dz2ZdAs/FUv9m1GsDP6N8/CERNP/6fZL+uaS6+V09pP3yYG8D9CjRAw5KGvz46ur8l39Y/SQIePz/J87/g1pA/
lpc_rms=-15.97
offset=4025
pitch_keycenter=a#3
sample=Bass_trill_wholetone_FF_A#3.opus
</region>

<region>
hikey=G5
hivel=127
lokey=a4
loop_end=269204
loop_mode=loop_continuous
loop_start=87509
loop_xfade=22016
lovel=1
lpc=U+2OQU5AM8Lq6StCRViawe0dc0CiQ26/Y3GkQI8NBsEI1sRAJWGvvmNyI8BnokzAuZL5QGbiFsB4roXAqo7fQL2qX8Dk507ABGxdQEIhyrzbjHa/4CRePwzOJr8IMxc/
lpc_rms=-17.75
offset=3685
pitch_keycenter=A#4
sample=Bass_trill_wholetone_FF_A#4.opus
</region>

<region>
hivel=127
key=c2
loop_end=275468
loop_mode=loop_continuous
loop_start=89545
loop_xfade=22528
lovel=1
lpc=qt4nQfB7ysHrq8NBPDhGwSpXkkAjKIDAtRCiQPK2sL9MForA4fSUQEq9L8BAa9A/Tnxjvt+4PL9fk/Q/0yTbv2t4yL4e7k++ETQWQCS267+V7xm/5dfHP85ZM78sQwY8
lpc_rms=-16.78
offset=5550
sample=Bass_trill_wholetone_FF_C2.opus
</region>

<region>
hikey=c3
hivel=127
lokey=b2
loop_end=269918
loop_mode=loop_continuous
loop_start=87741
loop_xfade=22074
lovel=1
lpc=R9BNQcXsBsJb4g9Cv2yfwX+Ox0BBrTnAerKbQNcrmsD+MBVAh7KQvymdaD+TFxXA2hh3QLlMCMD1xx8+NaGBPymVAMCnIeg/+xGqv8NwRj/shXw/SylbwEd+TECYwoG/
lpc_rms=-17.50
offset=2378
pitch_keycenter=c3
sample=Bass_trill_wholetone_FF_C3.opus
</region>

<region>
hikey=c4
hivel=127
lokey=b3
loop_end=272695
loop_mode=loop_continuous
loop_start=88644
loop_xfade=22302
lovel=1
lpc=BIPSQWyLhcLBB4NCX1LxwSQLEUGsBgjBBPFcQX1hh8H8ax5BB87Bv0e9v74MeH2/NGOdP6mU272H/wzAABWQQLTCbcChBw8/98CRP1+VQMBL1YRAo01+vzu8B8DsFfM/
lpc_rms=-11.76
offset=2445
pitch_keycenter=c4
sample=Bass_trill_wholetone_FF_C4.opus
</region>

<region>
hikey=d2
hivel=127
lokey=c#2
loop_end=270852
loop_mode=loop_continuous
loop_start=88045
loop_xfade=22151
lovel=1
lpc=XO8xQW+D0sHJcMhB4NlawdimsUAzUTfA6B2AQAMQmL+jqIzAF/AvQPUkcz8qi/q/pb4pQMBEuL9r3Zw/SwgFwLiHmD6no8G+RGsJQHvtBMC16/69B05JQAxAb8DSisE/
lpc_rms=-16.38
offset=2063
pitch_keycenter=d2
sample=Bass_trill_wholetone_FF_D2.opus
</region>

<region>
hikey=d3
hivel=127
lokey=c#3
loop_end=270402
loop_mode=loop_continuous
loop_start=87899
loop_xfade=22114
lovel=1
lpc=rm9tQTs6HMKxZitCF+DYwQb3RkFV3sPAxODHQNzz0MCjm0ZA3HaOP4RvWMDAsvA/VTXgPoPjw77Z8m8/uHE2Po/VMMCmFixAhNfXvcLhJsAiZ5tAaMPAwPc7cEAawVe/
lpc_rms=-16.55
offset=1758
pitch_keycenter=d3
sample=Bass_trill_wholetone_FF_D3.opus
</region>

<region>
hikey=d4
hivel=127
lokey=c#4
loop_end=273491
loop_mode=loop_continuous
loop_start=88903
loop_xfade=22367
lovel=1
lpc=0bmWQdPfQMLag0lCJqfdwcOpCUFonI7A4IMSQTNSIsEZQKJAXU/PvyZ/Jj/VbkS/feyCvEOdMj4lYZM/fQCAv5fAJD+vlpS/2kZZPwCCX7+d3BpA3Dc+wGS7TD/1m1c/
lpc_rms=-13.56
offset=2513
pitch_keycenter=d4
sample=Bass_trill_wholetone_FF_D4.opus
</region>

<region>
hikey=e2
hivel=127
lokey=d#2
loop_end=242397
loop_mode=loop_continuous
loop_start=78795
loop_xfade=19824
lovel=1
lpc=FRs0QS9k18GLNs1BwilXwTz2oEDTak3Al1OmQPyB/L8yIp/A/v51QAhZwz5mp9K/ada5P4E9OT/0NRw96bAewJp0iT6/9a4/5KuEvlJm5r5xFHI/TYtmvfoXwr83Ooo/
lpc_rms=-15.13
offset=4864
pitch_keycenter=e2
sample=Bass_trill_wholetone_FF_E2.opus
</region>

<region>
hikey=e3
hivel=127
lokey=d#3
loop_end=270733
loop_mode=loop_continuous
loop_start=88006
loop_xfade=22141
lovel=1
lpc=SDvcQetqlsKbeZ1C70cgwoZHT0Hz3xXBQztJQW+nKMG2Nzs+V9NKQWc7fMHF2j9Amx8AQXOdlsBfWGI/ppOEv7V7Qj9q13k+bcyPvzSxST+7VGM/NFuHwLFubkDoPTO/
lpc_rms=-14.52
offset=2403
pitch_keycenter=e3
sample=Bass_trill_wholetone_FF_E3.opus
</region>

<region>
hikey=e4
hivel=127
lokey=d#4
loop_end=268926
loop_mode=loop_continuous
loop_start=87419
loop_xfade=21993
lovel=1
lpc=yHvIQZytesLq0G9Cy8vbwXGWBEE/YpTA19poQNO/gMB8YG1AS49HvtUwIL9WzmLA3Xq1QIgifsAgu7w+jPhBQKdrcMAGwte+xvOYQFd4W8B1OTNA1JgSwLVb3r+OrB9A
lpc_rms=-11.41
offset=4006
pitch_keycenter=e4
sample=Bass_trill_wholetone_FF_E4.opus
</region>

<region>
hikey=f#2
hivel=127
lokey=f2
loop_end=273921
loop_mode=loop_continuous
loop_start=89042
loop_xfade=22402
lovel=1
lpc=PjQ0Qdhj3MGODOdBnQOWwV/YEUEVopfAyVyyQM5tj8B8roe/HAhaQOeXDsDj2gu+HYz2P1lYpL/qawJA775BwL7rwT+RzZm/3o+WP4lH8z0O992/EeM5QDXTF8BCsGg/
lpc_rms=-13.50
offset=4660
pitch_keycenter=f#2
sample=Bass_trill_wholetone_FF_F#2.opus
</region>

<region>
hikey=f#3
hivel=127
lokey=f3
loop_end=271454
loop_mode=loop_continuous
loop_start=88240
loop_xfade=22200
lovel=1
lpc=t/LzQTVKkcIEUIBCmlEYwkbW/kGIXqPBMeMKQeaRNcGitCFBoOqIv+KSeL9QAgPAXkEUwNx+2UCBaZbAhackQEiTCL/UJIq/5ofWP97Okz9w+qHAGDKDQK9BDsBOUZA/
lpc_rms=-11.59
offset=1324
pitch_keycenter=f#3
sample=Bass_trill_wholetone_FF_F#3.opus
</region>

<region>
hikey=f#4
hivel=127
lokey=f4
loop_end=275331
loop_mode=loop_continuous
loop_start=89501
loop_xfade=22517
lovel=1
lpc=Q3nyQX1hj8IUAXZCTY2+wdae1EBm3PXA7Ys0QdKptcCGwLPAj3IcQaix4MBgNhZAKgngvksjE0AgmEbAsqqRQHWTwMDEMQJAxSsRQJLver+3HbU/7MTkvoRxosCOL4dA
lpc_rms=-13.87
offset=10571
pitch_keycenter=f#4
sample=Bass_trill_wholetone_FF_F#4.opus
</region>

<region>
hikey=g#2
hivel=127
lokey=g2
loop_end=271456
loop_mode=loop_continuous
loop_start=88241
loop_xfade=22200
lovel=1
lpc=Zf8uQWRJ4sHVIPhBNiWVwdWHxkDMJizAfTLjQOLIH8HtRptAbH7zPy+iUcCSTU+/b8NvQCrkKr/7M1LA9eCUQIZge8ApWHY/4wPqPkNHM77V870+nBtrPT7Nd79MkTM/
lpc_rms=-15.11
offset=3156
pitch_keycenter=g#2
sample=Bass_trill_wholetone_FF_G#2.opus
</region>

<region>
hikey=g#3
hivel=127
lokey=g3
loop_end=266797
loop_mode=loop_continuous
loop_start=86727
loop_xfade=21819
lovel=1
lpc=0xfHQR6hdMJlDFtCIX7awY6ri0HZ1i7By/D2P000kb/FtAxAOXGNQA0FD8F1CDRATpDUv17F8kB/aqfA2yAGvxNvD0CrD1vAN2+pQIkZEsCzJTDA/RqeP747yj9op1+/
lpc_rms=-16.79
offset=988
pitch_keycenter=g#3
sample=Bass_trill_wholetone_FF_G#3.opus
</region>

<region>
hikey=g#4
hivel=127
lokey=g4
loop_end=272606
loop_mode=loop_continuous
loop_start=88615
loop_xfade=22294
lovel=1
lpc=jlqHQeEfIcLP6RRCayClwSPjTUEjFjDB2TcvQbW7BcF7EnZAWuGvvwBgDUB/zo3AKKu+P6hsDkB0TIW/U+qTP5QD4r95Z7o/v2Hcv3s3mr48/4FAq0E3wJUG4L/iIwZA
lpc_rms=-19.12
offset=2400
pitch_keycenter=g#4
sample=Bass_trill_wholetone_FF_G#4.opus
</region>
</group>